<?xml version="1.0" encoding="UTF-8" standalone="no"?>
<!-- Created with Inkscape (http://www.inkscape.org/) -->

<svg
   xmlns:dc="http://purl.org/dc/elements/1.1/"
   xmlns:cc="http://creativecommons.org/ns#"
   xmlns:rdf="http://www.w3.org/1999/02/22-rdf-syntax-ns#"
   xmlns:svg="http://www.w3.org/2000/svg"
   xmlns="http://www.w3.org/2000/svg"
   xmlns:xlink="http://www.w3.org/1999/xlink"
   xmlns:sodipodi="http://sodipodi.sourceforge.net/DTD/sodipodi-0.dtd"
   xmlns:inkscape="http://www.inkscape.org/namespaces/inkscape"
   width="176.20995"
   height="36"
   viewBox="0 0 46.622214 9.5249999"
   version="1.1"
   id="svg8"
   inkscape:version="0.92.3 (2405546, 2018-03-11)"
   sodipodi:docname="fractory light.svg">
  <defs
     id="defs2">
    <rect
       height="46.700001"
       width="182.5"
       y="-5.4000001"
       x="-5"
       id="SVGID_1_" />
    <clipPath
       id="SVGID_2_">
				<use
   height="100%"
   width="100%"
   y="0"
   x="0"
   xlink:href="#SVGID_1_"
   style="overflow:visible"
   id="use15" />

			</clipPath>
  </defs>
  <sodipodi:namedview
     id="base"
     pagecolor="#ffffff"
     bordercolor="#666666"
     borderopacity="1.0"
     inkscape:pageopacity="0.0"
     inkscape:pageshadow="2"
     inkscape:zoom="3.959798"
     inkscape:cx="130.49338"
     inkscape:cy="64.720489"
     inkscape:document-units="mm"
     inkscape:current-layer="layer1"
     showgrid="false"
     units="px"
     scale-x="1"
     fit-margin-top="0"
     fit-margin-left="0"
     fit-margin-right="0"
     fit-margin-bottom="0"
     inkscape:pagecheckerboard="true"
     inkscape:window-width="1615"
     inkscape:window-height="1026"
     inkscape:window-x="65"
     inkscape:window-y="24"
     inkscape:window-maximized="1" />
  <metadata
     id="metadata5">
    <rdf:RDF>
      <cc:Work
         rdf:about="">
        <dc:format>image/svg+xml</dc:format>
        <dc:type
           rdf:resource="http://purl.org/dc/dcmitype/StillImage" />
        <dc:title></dc:title>
      </cc:Work>
    </rdf:RDF>
  </metadata>
  <g
     inkscape:label="Layer 1"
     inkscape:groupmode="layer"
     id="layer1"
     transform="translate(-63.924302,-112.53717)">
    <path
       style="fill:#f6423a"
       inkscape:connector-curvature="0"
       class="st0"
       d="M 35,35.3 H 1.4 C 1.1,35.3 0.9,35.1 0.9,34.8 V 1.2 C 0.9,0.9 1.1,0.7 1.4,0.7 H 35 c 0.3,0 0.5,0.2 0.5,0.5 v 33.6 c 0,0.3 -0.2,0.5 -0.5,0.5"
       clip-path="url(#SVGID_2_)"
       id="path18"
       transform="matrix(0.27360454,0,0,0.27360454,63.678058,112.34565)" />
    <path
       style="fill:#ffffff"
       inkscape:connector-curvature="0"
       class="st1"
       d="M 4.5,18.9 V 3.6 C 4.5,3.4 4.8,3.2 5,3.4 l 7.6,7.6 c 0.1,0.1 0.1,0.3 0,0.4 L 5,19.1 C 4.8,19.3 4.5,19.2 4.5,18.9"
       clip-path="url(#SVGID_2_)"
       id="path20"
       transform="matrix(0.27360454,0,0,0.27360454,63.678058,112.34565)" />
    <path
       style="fill:#ffffff"
       inkscape:connector-curvature="0"
       class="st1"
       d="M 12.7,32.8 V 17.6 c 0,-0.2 -0.3,-0.4 -0.5,-0.2 L 4.6,25 c -0.1,0.1 -0.1,0.3 0,0.4 l 7.6,7.6 c 0.2,0.2 0.5,0.1 0.5,-0.2"
       clip-path="url(#SVGID_2_)"
       id="path22"
       transform="matrix(0.27360454,0,0,0.27360454,63.678058,112.34565)" />
    <path
       style="fill:#ffffff"
       inkscape:connector-curvature="0"
       class="st1"
       d="m 31.2,25.2 c 0,4 -3.3,7.3 -7.3,7.3 -4,0 -7.3,-3.3 -7.3,-7.3 0,-4 3.3,-7.3 7.3,-7.3 4,0 7.3,3.3 7.3,7.3"
       clip-path="url(#SVGID_2_)"
       id="path24"
       transform="matrix(0.27360454,0,0,0.27360454,63.678058,112.34565)" />
    <path
       style="fill:#ffffff"
       inkscape:connector-curvature="0"
       class="st1"
       d="m 20.4,11.6 c 0,1 -0.8,1.8 -1.8,1.8 -1,0 -1.8,-0.8 -1.8,-1.8 0,-1 0.8,-1.8 1.8,-1.8 1,0 1.8,0.8 1.8,1.8"
       clip-path="url(#SVGID_2_)"
       id="path26"
       transform="matrix(0.27360454,0,0,0.27360454,63.678058,112.34565)" />
    <polygon
       style="fill:#ffffff"
       class="st1"
       points="47.4,28.9 47.4,5.9 61.1,5.9 61.1,10.3 52,10.3 52,15.7 60.9,15.7 60.9,20 52,20 52,28.9 "
       clip-path="url(#SVGID_2_)"
       id="polygon28"
       transform="matrix(0.27360454,0,0,0.27360454,63.678058,112.34565)" />
    <path
       style="fill:#ffffff"
       inkscape:connector-curvature="0"
       class="st1"
       d="m 68.5,15.3 c 0.8,-2.1 2.8,-3.1 5,-3.1 v 4.7 C 72.2,16.7 71,17 70,17.7 c -1,0.7 -1.5,1.8 -1.5,3.4 v 7.8 H 64.3 V 12.5 h 4.2 z"
       clip-path="url(#SVGID_2_)"
       id="path30"
       transform="matrix(0.27360454,0,0,0.27360454,63.678058,112.34565)" />
    <path
       style="fill:#ffffff"
       inkscape:connector-curvature="0"
       class="st1"
       d="M 87.7,12.5 H 92 V 28.9 H 87.8 V 27 c -1.3,1.6 -3,2.4 -5.3,2.4 -2.2,0 -4.1,-0.8 -5.6,-2.5 -1.5,-1.7 -2.3,-3.7 -2.3,-6.2 0,-2.5 0.8,-4.5 2.3,-6.1 1.6,-1.7 3.4,-2.5 5.6,-2.5 2.3,0 4.1,0.8 5.3,2.4 v -2 z m -4.5,12.8 c 1.3,0 2.4,-0.4 3.2,-1.3 0.9,-0.9 1.3,-2 1.3,-3.3 0,-1.3 -0.4,-2.5 -1.3,-3.3 -0.9,-0.9 -1.9,-1.3 -3.2,-1.3 -1.3,0 -2.4,0.4 -3.2,1.3 -0.9,0.9 -1.3,2 -1.3,3.3 0,1.3 0.4,2.5 1.3,3.3 0.8,0.9 1.9,1.3 3.2,1.3"
       clip-path="url(#SVGID_2_)"
       id="path32"
       transform="matrix(0.27360454,0,0,0.27360454,63.678058,112.34565)" />
    <path
       style="fill:#ffffff"
       inkscape:connector-curvature="0"
       class="st1"
       d="m 96.4,26.8 c -1.6,-1.7 -2.5,-3.7 -2.5,-6.2 0,-2.5 0.8,-4.5 2.5,-6.2 1.7,-1.7 3.7,-2.5 6.2,-2.5 3.2,0 6,1.6 7.3,4.2 l -3.6,2.1 c -0.7,-1.3 -2.1,-2.2 -3.7,-2.2 -2.5,0 -4.4,1.9 -4.4,4.5 0,1.3 0.4,2.4 1.2,3.2 0.8,0.8 1.9,1.2 3.1,1.2 1.7,0 3.1,-0.8 3.8,-2.2 l 3.7,2.1 c -1.4,2.6 -4.2,4.3 -7.4,4.3 -2.4,0.2 -4.5,-0.6 -6.2,-2.3"
       clip-path="url(#SVGID_2_)"
       id="path34"
       transform="matrix(0.27360454,0,0,0.27360454,63.678058,112.34565)" />
    <path
       style="fill:#ffffff"
       inkscape:connector-curvature="0"
       class="st1"
       d="m 122.3,16.6 h -3.7 v 6.8 c 0,1.8 1.3,1.8 3.7,1.7 v 3.8 c -5.8,0.7 -7.9,-1 -7.9,-5.5 v -6.8 h -2.9 v -4.1 h 2.9 V 9.2 l 4.2,-1.3 v 4.6 h 3.7 z"
       clip-path="url(#SVGID_2_)"
       id="path36"
       transform="matrix(0.27360454,0,0,0.27360454,63.678058,112.34565)" />
    <path
       style="fill:#ffffff"
       inkscape:connector-curvature="0"
       class="st1"
       d="m 132.6,29.3 c -2.4,0 -4.5,-0.8 -6.2,-2.5 -1.7,-1.7 -2.5,-3.7 -2.5,-6.2 0,-2.5 0.8,-4.5 2.5,-6.1 1.7,-1.7 3.7,-2.5 6.2,-2.5 2.4,0 4.5,0.9 6.2,2.5 1.7,1.7 2.5,3.7 2.5,6.1 0,2.4 -0.9,4.5 -2.5,6.2 -1.7,1.7 -3.8,2.5 -6.2,2.5 m 0,-4.1 c 1.3,0 2.3,-0.4 3.2,-1.3 0.9,-0.9 1.3,-1.9 1.3,-3.2 0,-1.3 -0.4,-2.4 -1.3,-3.2 -0.9,-0.9 -1.9,-1.3 -3.2,-1.3 -1.3,0 -2.3,0.4 -3.2,1.3 -0.8,0.9 -1.2,1.9 -1.2,3.2 0,1.3 0.4,2.4 1.2,3.2 0.8,0.9 1.9,1.3 3.2,1.3"
       clip-path="url(#SVGID_2_)"
       id="path38"
       transform="matrix(0.27360454,0,0,0.27360454,63.678058,112.34565)" />
    <path
       style="fill:#ffffff"
       inkscape:connector-curvature="0"
       class="st1"
       d="m 147.6,15.3 c 0.8,-2.1 2.8,-3.1 5,-3.1 v 4.7 c -1.3,-0.2 -2.5,0.1 -3.5,0.8 -1,0.7 -1.5,1.8 -1.5,3.4 v 7.8 h -4.2 V 12.5 h 4.2 z"
       clip-path="url(#SVGID_2_)"
       id="path40"
       transform="matrix(0.27360454,0,0,0.27360454,63.678058,112.34565)" />
    <path
       style="fill:#ffffff"
       inkscape:connector-curvature="0"
       class="st1"
       d="m 166.8,12.5 h 4.5 l -6,16.4 c -1.7,4.7 -4.5,6.8 -8.7,6.6 v -3.9 c 2.3,0 3.5,-0.9 4.3,-3.1 l -6.7,-15.9 h 4.6 l 4.3,11 z"
       clip-path="url(#SVGID_2_)"
       id="path42"
       transform="matrix(0.27360454,0,0,0.27360454,63.678058,112.34565)" />
  </g>
  <style
     id="style10"
     type="text/css">
	.st0{clip-path:url(#SVGID_2_);fill:#F6423A;}
	.st1{clip-path:url(#SVGID_2_);fill:#FFFFFF;}
</style>
</svg>
